<svg width="124" height="27" viewBox="0 0 124 27" fill="none" xmlns="http://www.w3.org/2000/svg">
<path d="M32.884 23.941V2.7H36.1672V12.9316L34.5864 11.7947H47.7192L46.1384 12.9316V2.7H49.4216V23.941H46.1384V13.5898L47.7192 14.7266H34.5864L36.1672 13.5898V23.941H32.884Z" fill="black"/>
<path d="M57.7832 24.3C56.1011 24.3 54.7533 23.9211 53.74 23.1632C52.7469 22.4053 52.2504 21.3382 52.2504 19.9621C52.2504 18.5859 52.6659 17.5188 53.4968 16.7609C54.348 15.9831 55.6552 15.4247 57.4184 15.0856L62.9816 14.0385C62.9816 12.8019 62.6877 11.8845 62.1 11.2861C61.5123 10.6679 60.6408 10.3587 59.4856 10.3587C58.452 10.3587 57.6413 10.5881 57.0536 11.0468C56.4659 11.4856 56.0605 12.1438 55.8376 13.0213L52.524 12.8119C52.828 11.2163 53.5779 9.95983 54.7736 9.04238C55.9896 8.12493 57.5603 7.66621 59.4856 7.66621C61.6744 7.66621 63.3363 8.2446 64.4712 9.40139C65.6264 10.5382 66.204 12.1438 66.204 14.218V20.4108C66.204 20.7898 66.2648 21.059 66.3864 21.2186C66.5283 21.3582 66.7512 21.428 67.0552 21.428H67.6328V23.941C67.5315 23.9609 67.3693 23.9809 67.1464 24.0008C66.9235 24.0208 66.6904 24.0307 66.4472 24.0307C65.7581 24.0307 65.1603 23.9211 64.6536 23.7017C64.1672 23.4823 63.8024 23.1233 63.5592 22.6247C63.316 22.1061 63.1944 21.418 63.1944 20.5604L63.5288 20.71C63.3667 21.408 63.012 22.0263 62.4648 22.5648C61.9379 23.1033 61.2589 23.5321 60.428 23.8512C59.6173 24.1504 58.7357 24.3 57.7832 24.3ZM58.3 21.787C59.2728 21.787 60.1037 21.6075 60.7928 21.2485C61.4819 20.8695 62.0189 20.351 62.404 19.6928C62.7891 19.0346 62.9816 18.2867 62.9816 17.449V16.4319L58.2392 17.3294C57.2664 17.5089 56.5773 17.7981 56.172 18.197C55.7869 18.5759 55.5944 19.0645 55.5944 19.6629C55.5944 20.341 55.8275 20.8695 56.2936 21.2485C56.78 21.6075 57.4488 21.787 58.3 21.787Z" fill="black"/>
<path d="M76.1324 24.3C74.5516 24.3 73.1836 23.9609 72.0284 23.2828C70.8935 22.6047 70.0119 21.6374 69.3836 20.3809C68.7756 19.1244 68.4716 17.6584 68.4716 15.9831C68.4716 14.3078 68.7756 12.8518 69.3836 11.6152C70.0119 10.3587 70.8935 9.39141 72.0284 8.7133C73.1634 8.01523 74.501 7.66621 76.0412 7.66621C77.5004 7.66621 78.7874 8.00526 79.902 8.68338C81.0167 9.34155 81.878 10.2989 82.486 11.5554C83.1143 12.8119 83.4284 14.3277 83.4284 16.1028V16.9105H71.8156C71.8967 18.4662 72.3122 19.633 73.062 20.4108C73.8322 21.1886 74.8658 21.5776 76.1628 21.5776C77.1154 21.5776 77.9058 21.3582 78.534 20.9194C79.1623 20.4806 79.598 19.8922 79.8412 19.1543L83.1852 19.3637C82.7596 20.8396 81.9185 22.0363 80.662 22.9537C79.4258 23.8512 77.9159 24.3 76.1324 24.3ZM71.8156 14.5172H80.0236C79.9223 13.1011 79.5068 12.054 78.7772 11.3759C78.0679 10.6978 77.1559 10.3587 76.0412 10.3587C74.886 10.3587 73.9335 10.7177 73.1836 11.4357C72.454 12.1338 71.998 13.1609 71.8156 14.5172Z" fill="black"/>
<path d="M85.9336 23.941V2.7H89.156V15.8934L96.4215 8.02521H100.495L94.1719 14.7266L100.738 23.941H97.0295L92.0135 16.7011L89.156 19.6928V23.941H85.9336Z" fill="black"/>
<path d="M106.773 24.3C105.091 24.3 103.744 23.9211 102.73 23.1632C101.737 22.4053 101.241 21.3382 101.241 19.9621C101.241 18.5859 101.656 17.5188 102.487 16.7609C103.338 15.9831 104.645 15.4247 106.409 15.0856L111.972 14.0385C111.972 12.8019 111.678 11.8845 111.09 11.2861C110.503 10.6679 109.631 10.3587 108.476 10.3587C107.442 10.3587 106.632 10.5881 106.044 11.0468C105.456 11.4856 105.051 12.1438 104.828 13.0213L101.514 12.8119C101.818 11.2163 102.568 9.95983 103.764 9.04238C104.98 8.12493 106.551 7.66621 108.476 7.66621C110.665 7.66621 112.326 8.2446 113.461 9.40139C114.617 10.5382 115.194 12.1438 115.194 14.218V20.4108C115.194 20.7898 115.255 21.059 115.377 21.2186C115.518 21.3582 115.741 21.428 116.045 21.428H116.623V23.941C116.522 23.9609 116.36 23.9809 116.137 24.0008C115.914 24.0208 115.681 24.0307 115.437 24.0307C114.748 24.0307 114.15 23.9211 113.644 23.7017C113.157 23.4823 112.793 23.1233 112.549 22.6247C112.306 22.1061 112.185 21.418 112.185 20.5604L112.519 20.71C112.357 21.408 112.002 22.0263 111.455 22.5648C110.928 23.1033 110.249 23.5321 109.418 23.8512C108.608 24.1504 107.726 24.3 106.773 24.3ZM107.29 21.787C108.263 21.787 109.094 21.6075 109.783 21.2485C110.472 20.8695 111.009 20.351 111.394 19.6928C111.779 19.0346 111.972 18.2867 111.972 17.449V16.4319L107.229 17.3294C106.257 17.5089 105.568 17.7981 105.162 18.197C104.777 18.5759 104.585 19.0645 104.585 19.6629C104.585 20.341 104.818 20.8695 105.284 21.2485C105.77 21.6075 106.439 21.787 107.29 21.787Z" fill="black"/>
<path d="M121.902 23.941C120.849 23.941 119.997 23.6717 119.349 23.1332C118.7 22.5947 118.376 21.7371 118.376 20.5604V2.7H121.598V20.2612C121.598 20.6202 121.69 20.8895 121.872 21.069C122.075 21.2485 122.358 21.3382 122.723 21.3382H124V23.941H121.902Z" fill="black"/>
<path d="M13.1359 0.0117298C20.6967 -0.296126 27.0793 5.49353 27.3914 12.9431C27.7036 20.3927 21.8272 26.681 14.2664 26.9883C6.7059 27.2956 0.324036 21.5061 0.0118832 14.0569C-0.300268 6.60773 5.57549 0.319569 13.1359 0.0117298ZM7.22543 4.37919C7.3175 4.6379 7.40389 4.95006 7.48413 5.21563L7.92188 6.6654C8.01919 6.98721 8.13496 7.41209 8.26076 7.7164C8.6447 8.63631 9.3625 9.38244 10.2743 9.80937C10.6619 9.99156 11.0769 10.1104 11.5032 10.1611C11.9049 10.2088 12.317 10.1859 12.7209 10.1711C13.5794 10.1398 14.4424 10.1353 15.3003 10.0983L15.9675 12.302C16.0842 12.688 16.205 13.1206 16.3338 13.4997C15.2548 13.5011 14.1308 13.5723 13.0469 13.5864C12.4176 13.5946 11.9175 13.639 11.2774 13.5794C9.54482 13.4138 7.92448 12.6602 6.6935 11.4476C5.87774 10.6449 5.25992 9.66829 4.88764 8.59317C4.72258 8.11628 4.5942 7.60664 4.43622 7.12662C4.09796 7.63305 3.83721 8.03894 3.56161 8.59043C2.45608 10.8112 2.13113 13.3311 2.6379 15.7536C3.24564 18.6459 4.99468 21.1819 7.50018 22.8035C8.12765 23.2095 8.79374 23.5545 9.489 23.8334C9.41835 23.602 9.31514 23.2975 9.25948 23.0682C9.0657 22.4695 8.88461 21.8377 8.70158 21.2323L6.52732 14.0435C6.32668 13.3799 6.11161 12.6996 5.92202 12.035C6.86665 12.9907 8.02819 13.7116 9.31097 14.1384C9.65647 14.253 9.92078 14.3061 10.2592 14.396L12.2747 21.0648C12.631 22.2425 12.9826 23.4566 13.3535 24.628C16.1969 24.6767 18.6143 23.8631 20.8436 22.1246C20.1758 21.4222 19.6927 20.7405 19.3073 19.8465C19.116 19.4028 19.0026 18.9988 18.8633 18.5387L14.3004 3.45346C14.2049 3.13764 14.0505 2.68085 13.9756 2.36872C13.7674 2.36938 13.5381 2.36569 13.3315 2.3738C11.0016 2.48748 9.15922 3.08708 7.22543 4.37919ZM17.8228 3.13527C17.9689 3.56631 18.1051 4.05046 18.2376 4.48856L22.0248 17.0072C22.2903 17.8856 22.5129 18.884 23.1746 19.5683C23.398 19.2137 23.6726 18.7732 23.8483 18.3932C25.165 15.7395 25.3595 12.6794 24.389 9.88459C23.4122 7.09691 21.3569 4.80252 18.6708 3.50141C18.4633 3.40106 18.0416 3.20444 17.8228 3.13527Z" fill="black"/>
</svg>
