<svg preserveAspectRatio="none" width="100%" height="100%" overflow="visible" style="display: block;" viewBox="0 0 93.011 269.067" fill="none" xmlns="http://www.w3.org/2000/svg">
<g id="Group">
<path id="Vector" d="M78.8122 0.0503719C78.4899 0.0688329 75.444 0.346138 72.0437 0.666615C67.7421 1.07198 65.7758 1.29351 65.5803 1.3945C64.9183 1.73686 64.7358 2.30212 64.6492 4.27773C64.6152 5.0567 64.5251 6.07362 64.4491 6.53749C63.9707 9.46037 62.1524 11.7465 59.836 12.3375C59.5284 12.4161 53.2331 13.0326 45.8463 13.7078C30.6454 15.0971 30.7084 15.0939 29.581 14.542C27.6361 13.59 26.5743 11.4712 26.4498 8.29333C26.3744 6.37261 26.2732 5.881 25.8698 5.47759C25.5932 5.20097 25.4821 5.15682 25.0632 5.15682C24.284 5.15682 13.3955 6.21965 12.0013 6.4317C7.63218 7.09649 4.96365 8.68579 2.91342 11.8441C1.30351 14.3242 0.469154 17.2152 0.121815 21.5177C-0.0292902 23.3899 -0.027825 20.762 0.0607674 126.862C0.144574 227.314 0.198589 252.123 0.338365 254.428C0.672908 259.946 1.99076 263.549 4.59199 266.057C6.54631 267.941 8.56929 268.736 12.0372 268.983C13.1299 269.06 23.2433 269.082 47.6045 269.057L81.6448 269.022L82.7193 268.812C85.6991 268.228 87.7542 267.061 89.4463 264.993C91.4878 262.497 92.5616 259.217 92.9364 254.331C93.0707 252.581 93.0355 230.574 92.7344 127.888C92.6298 92.27 92.5183 52.9965 92.4864 40.6135C92.4284 18.1315 92.372 13.9868 92.094 11.8237C91.4795 7.0413 89.9842 3.92346 87.3546 1.94208C85.2559 0.360594 82.8199 -0.178778 78.8122 0.0503719Z" fill="var(--fill-0, white)"/>
</g>
</svg>
