<svg preserveAspectRatio="none" width="100%" height="100%" overflow="visible" style="display: block;" viewBox="0 0 85.5051 273.218" fill="none" xmlns="http://www.w3.org/2000/svg">
<g id="Group">
<path id="Vector" d="M8.82838 0.138438C6.30529 0.605529 4.33798 1.93579 2.89403 4.1511C1.26654 6.64792 0.479652 9.70999 0.238488 14.4845C0.137294 16.4876 0.0611065 77.565 0.0109009 196.847C-0.0158625 260.305 -0.0253371 258.661 0.381877 261.394C1.18517 266.786 3.34529 270.443 6.72501 272.134C7.57509 272.559 8.49325 272.846 9.70005 273.063C10.8761 273.275 15.2714 273.27 25.3813 273.045C29.1956 272.96 36.6458 272.801 41.9375 272.691C64.0366 272.235 73.9801 271.997 74.8546 271.903C78.0825 271.558 80.246 270.476 81.946 268.356C84.0191 265.769 85.0196 262.648 85.4095 257.554C85.5393 255.856 85.5375 222.996 85.4009 104.933C85.3394 51.7161 85.2718 22.6631 85.2066 21.5173C85.0837 19.3508 84.9698 18.3621 84.6562 16.7362C84.017 13.4221 82.6424 10.5875 80.7686 8.71945C78.914 6.87053 76.7789 5.97717 73.1941 5.55003C71.6123 5.36161 62.7891 4.57043 62.269 4.57033C61.8145 4.57033 61.711 4.60843 61.4729 4.86327C61.1087 5.25319 61.0088 5.77293 60.9402 7.63573C60.9089 8.48903 60.8145 9.51923 60.7307 9.92508C60.1926 12.5301 58.7015 14.2948 56.8498 14.5177C56.0479 14.6143 56.4832 14.6478 41.8398 13.3615C40.0401 13.2035 36.7875 12.9185 34.6117 12.7282C30.3681 12.3572 29.7775 12.2508 28.9133 11.7014C27.5191 10.8152 26.361 8.89019 25.9744 6.8169C25.8893 6.36026 25.7823 5.16606 25.7367 4.16302C25.6625 2.53143 25.6292 2.28997 25.4199 1.86927C25.2877 1.60379 25.0584 1.32629 24.8928 1.23174C24.6631 1.10056 23.4398 0.955603 19.2275 0.5605C13.0718 -0.0170637 10.2799 -0.130368 8.82838 0.138438Z" fill="var(--fill-0, white)"/>
</g>
</svg>
